<svg xmlns="http://www.w3.org/2000/svg" viewBox="0 0 645.26 91.56"><defs><style>.cls-1{fill:#836af9;}</style></defs><g id="Ebene_2" data-name="Ebene 2"><g id="Ebene_1-2" data-name="Ebene 1"><path class="cls-1" d="M197,45.78a28.63,28.63,0,0,1,28.78-28.94A28.23,28.23,0,0,1,247,26.16,4.66,4.66,0,0,1,243.49,34a6.13,6.13,0,0,1-3.77-1.85,18.48,18.48,0,0,0-14-6.27c-10.61,0-19,8.76-19,19.86s8.44,19.77,19,19.77a18.48,18.48,0,0,0,14-6.27,6.18,6.18,0,0,1,3.77-1.85A4.66,4.66,0,0,1,247,65.31a28,28,0,0,1-21.22,9.41A28.63,28.63,0,0,1,197,45.78Z"/><path class="cls-1" d="M257.08,21.34a4.42,4.42,0,0,1,8.84,0v48.8a4.42,4.42,0,1,1-8.84,0Z"/><path class="cls-1" d="M275.41,22.31a5.23,5.23,0,1,1,5.22,5.22A5.21,5.21,0,0,1,275.41,22.31Zm.8,14.3a4.42,4.42,0,0,1,8.84,0V70.14a4.42,4.42,0,1,1-8.84,0Z"/><path class="cls-1" d="M293.65,53.41A20.94,20.94,0,0,1,315,32.11c6.76,0,12.38,2.9,15.44,6.51a5.1,5.1,0,0,1,1.29,3.06,4.08,4.08,0,0,1-4.35,4.1c-1.76,0-2.65-.89-3.77-1.85A11.74,11.74,0,0,0,315,40.31c-6.91,0-12.37,5.79-12.37,13.1S308,66.52,315,66.52a11.69,11.69,0,0,0,8.53-3.62c1.12-1,2.09-2,3.85-2a4.16,4.16,0,0,1,4.35,4.26,4.71,4.71,0,0,1-1.29,2.9c-3.06,3.69-8.6,6.67-15.44,6.67A21,21,0,0,1,293.65,53.41Z"/><path class="cls-1" d="M340,21.34a4.42,4.42,0,0,1,8.84,0v48.8a4.42,4.42,0,1,1-8.84,0Zm12,35.13a5.7,5.7,0,0,1-1.2-3.3,5,5,0,0,1,1.2-3.05l13.83-16.48A3.86,3.86,0,0,1,369,32.19a4,4,0,0,1,4.17,4,3.78,3.78,0,0,1-1,2.66l-11.66,13.9,12.3,14.55a4.89,4.89,0,0,1,1.05,2.9,4.53,4.53,0,0,1-4.5,4.42,4.24,4.24,0,0,1-3.3-1.61Z"/><path class="cls-1" d="M398.4,45.78a28.63,28.63,0,0,1,28.77-28.94,28.25,28.25,0,0,1,21.23,9.32A4.67,4.67,0,0,1,444.94,34a6,6,0,0,1-3.78-1.85,18.48,18.48,0,0,0-14-6.27c-10.61,0-19.05,8.76-19.05,19.86s8.44,19.77,19.05,19.77a18.74,18.74,0,0,0,18-13.82H431.43a4.39,4.39,0,1,1,0-8.77h20a4.41,4.41,0,0,1,4.34,4.67c-.4,13.26-12.14,27.09-28.62,27.09A28.63,28.63,0,0,1,398.4,45.78Z"/><path class="cls-1" d="M461.9,53.41A21.45,21.45,0,0,1,497.11,37.1a4.67,4.67,0,0,1,1.61,3.37,4.6,4.6,0,0,1-1.29,3.22L485.05,58.4A3.73,3.73,0,0,1,482,59.85a4,4,0,0,1-4.18-4,3.66,3.66,0,0,1,1-2.66l9.73-11.41a9.89,9.89,0,0,0-5.31-1.45c-6.91,0-12.38,5.79-12.38,13.1s5.39,13.11,12.38,13.11a11.53,11.53,0,0,0,8.52-3.62c1.29-1,2.17-2,3.86-2a4.16,4.16,0,0,1,4.34,4.26,4.69,4.69,0,0,1-1.28,2.9c-3.06,3.69-8.61,6.67-15.44,6.67A21,21,0,0,1,461.9,53.41Z"/><path class="cls-1" d="M508.2,50.84c0-11.49,8-18.73,18.09-18.73s18.09,7.24,18.09,18.73v19.3a4.48,4.48,0,0,1-4.43,4.5,4.43,4.43,0,0,1-4.42-4.5V50.52c0-6.67-4.1-10.21-9.24-10.21S517,43.85,517,50.52V70.14a4.42,4.42,0,1,1-8.84,0Z"/><path class="cls-1" d="M553.78,22.31A5.23,5.23,0,1,1,559,27.53,5.22,5.22,0,0,1,553.78,22.31Zm.8,14.3a4.43,4.43,0,0,1,8.85,0V70.14a4.43,4.43,0,1,1-8.85,0Z"/><path class="cls-1" d="M573.72,36.61a4.42,4.42,0,1,1,8.84,0V56.23c0,6.75,4.1,10.29,9.24,10.29s9.25-3.54,9.25-10.29V36.61a4.36,4.36,0,0,1,4.42-4.42,4.41,4.41,0,0,1,4.42,4.42v19.3c0,11.49-8,18.81-18.09,18.81s-18.08-7.32-18.08-18.81Z"/><path class="cls-1" d="M622.43,61a3.45,3.45,0,0,1,3.05,1.61c1.21,1.77,2.9,4.18,6.35,4.18a4.43,4.43,0,0,0,4.59-4.34c0-3.3-3.06-4.58-6.84-5.87-5.06-1.77-10.77-3.94-10.77-12.22,0-6.83,5.63-12.22,13-12.22,6.84,0,13.11,4.18,13.11,9.25a4,4,0,0,1-4.1,3.94,2.78,2.78,0,0,1-2.58-1.45C636.9,42.32,635,40,631.83,40a4.31,4.31,0,0,0-4.5,4.34c0,3.3,3.38,4.34,7.48,5.71,4.9,1.53,10.45,4.1,10.45,12.14,0,6.75-5.87,12.54-13.43,12.54-7.15,0-13.42-4.67-13.42-9.65A4.05,4.05,0,0,1,622.43,61Z"/><path class="cls-1" d="M375.8,25.44l-11.63,5.64a1,1,0,0,0-.16,1.79l10.05,7.19a1,1,0,0,0,1.64-.72l1.59-12.83A1,1,0,0,0,375.8,25.44Z"/><path class="cls-1" d="M95.68,38.91V52.73H93.29V39s0,0,0,0Z"/><path class="cls-1" d="M169.05,45.82,97,85c0,.06-.14.07-.19.13l-3.07,1.65-.23.12-.21.13V77.2A33.9,33.9,0,0,0,99.84,72a37.24,37.24,0,0,0,0-52.6,34.63,34.63,0,0,0-6.56-5.2V4.61L99,7.73v0Z"/><path class="cls-1" d="M111.38,38.91V52.73H53.75a20.91,20.91,0,0,1,0-13.82h48.33l1.45,0h6.51Z"/><path class="cls-1" d="M47.24,72a37.22,37.22,0,0,1,0-52.58,36.63,36.63,0,0,1,12.3-8.13A36.67,36.67,0,0,0,46.72,8.67a44.38,44.38,0,0,0-5.53,4.7,45.8,45.8,0,0,0,0,64.69A46.53,46.53,0,0,0,47,83a36.68,36.68,0,0,0,12.79-2.69A37.24,37.24,0,0,1,47.24,72Zm0,0a37.22,37.22,0,0,1,0-52.58,36.63,36.63,0,0,1,12.3-8.13A36.67,36.67,0,0,0,46.72,8.67a44.38,44.38,0,0,0-5.53,4.7,45.8,45.8,0,0,0,0,64.69A46.53,46.53,0,0,0,47,83a36.68,36.68,0,0,0,12.79-2.69A37.24,37.24,0,0,1,47.24,72Zm0,0a37.22,37.22,0,0,1,0-52.58,36.63,36.63,0,0,1,12.3-8.13A36.67,36.67,0,0,0,46.72,8.67a44.38,44.38,0,0,0-5.53,4.7,45.8,45.8,0,0,0,0,64.69A46.53,46.53,0,0,0,47,83a36.68,36.68,0,0,0,12.79-2.69A37.24,37.24,0,0,1,47.24,72Zm58.64-58.65a42.08,42.08,0,0,0-6.8-5.59l0,0v0A46,46,0,0,0,62.81,1.26c-1.12.28-2.25.59-3.35,1A45,45,0,0,0,50.94,6a43.88,43.88,0,0,0-4.22,2.72,44.38,44.38,0,0,0-5.53,4.7,45.8,45.8,0,0,0,0,64.69A46.53,46.53,0,0,0,47,83a42.69,42.69,0,0,0,4.22,2.67,45.43,45.43,0,0,0,8.62,3.72c1.08.35,2.18.64,3.28.89A45.94,45.94,0,0,0,93.27,87h0v0l.21-.11.22-.12,3.07-1.66c.06-.05.14-.06.2-.12a43.86,43.86,0,0,0,8.89-6.94A45.77,45.77,0,0,0,105.88,13.37ZM110,53c-.09.39-.17.79-.26,1.17l-.16.63,0,.19a11.47,11.47,0,0,1-.35,1.31,12.72,12.72,0,0,1-.38,1.24c0,.14-.09.26-.14.4s-.14.42-.23.63c-.14.38-.28.77-.44,1.15s-.33.85-.54,1.26c0,0,0,0,0,0-.11.26-.23.51-.35.77L106.46,63c-.25.49-.52,1-.82,1.48a.26.26,0,0,0,0,.09.16.16,0,0,1-.06.08c-.29.51-.61,1-.94,1.51s-.56.83-.85,1.25a0,0,0,0,1,0,0c-.21.3-.44.59-.65.87a.36.36,0,0,1-.08.09c-.21.29-.44.57-.68.85l-.18.23c-.19.24-.38.47-.59.7l-.11.1a5.47,5.47,0,0,1-.45.51c-.37.42-.73.8-1.13,1.2a34.52,34.52,0,0,1-6.56,5.18,0,0,0,0,1,0,0,36.43,36.43,0,0,1-19.35,5.65H72.59a37.62,37.62,0,0,1-10.52-1.75c-.76-.24-1.53-.52-2.3-.84A37.17,37.17,0,0,1,47.26,19.44a36.63,36.63,0,0,1,12.3-8.13c.77-.32,1.54-.6,2.32-.86A36.5,36.5,0,0,1,72.25,8.59c.48,0,1,0,1.44,0A36.81,36.81,0,0,1,93.27,14.2a0,0,0,0,1,0,0,35.28,35.28,0,0,1,6.56,5.2c.43.44.87.89,1.27,1.34a1.13,1.13,0,0,1,.1.13,1.31,1.31,0,0,1,.11.12c.38.42.73.82,1.06,1.24s.79,1,1.16,1.48.57.8.85,1.22a1.53,1.53,0,0,1,.19.3c.35.5.66,1,1,1.57s.61,1.06.89,1.6.49.91.7,1.38l.15.35a.15.15,0,0,1,0,.09c.23.47.43,1,.63,1.43.12.31.26.64.36,1s.25.66.37,1c.33.94.61,1.92.85,2.88.09.33.16.66.23,1s.21.94.3,1.42.17,1,.24,1.46.16,1.19.21,1.78a36.82,36.82,0,0,1,0,7.12c-.1,1.15-.28,2.3-.49,3.44A2.93,2.93,0,0,1,110,53ZM47.24,72a37.22,37.22,0,0,1,0-52.58,36.63,36.63,0,0,1,12.3-8.13A36.67,36.67,0,0,0,46.72,8.67a44.38,44.38,0,0,0-5.53,4.7,45.8,45.8,0,0,0,0,64.69A46.53,46.53,0,0,0,47,83a36.68,36.68,0,0,0,12.79-2.69A37.24,37.24,0,0,1,47.24,72Zm0,0a37.22,37.22,0,0,1,0-52.58,36.63,36.63,0,0,1,12.3-8.13A36.67,36.67,0,0,0,46.72,8.67a44.38,44.38,0,0,0-5.53,4.7,45.8,45.8,0,0,0,0,64.69A46.53,46.53,0,0,0,47,83a36.68,36.68,0,0,0,12.79-2.69A37.24,37.24,0,0,1,47.24,72Zm12.53,8.25A37.17,37.17,0,0,1,47.26,19.44a36.63,36.63,0,0,1,12.3-8.13c.77-.32,1.54-.6,2.32-.86A40.89,40.89,0,0,0,50.94,6a43.88,43.88,0,0,0-4.22,2.72,44.38,44.38,0,0,0-5.53,4.7,45.8,45.8,0,0,0,0,64.69A46.53,46.53,0,0,0,47,83a42.69,42.69,0,0,0,4.22,2.67,41.51,41.51,0,0,0,10.87-4.52C61.31,80.87,60.54,80.59,59.77,80.27Z"/><path class="cls-1" d="M62.07,81.11c-.76-.24-1.53-.52-2.3-.84A36.68,36.68,0,0,1,47,83l-.87,0a37.14,37.14,0,0,1-12-72.42,36.06,36.06,0,0,1,11.81-1.9h.84a36.67,36.67,0,0,1,12.84,2.64c.77-.32,1.54-.6,2.32-.86A36.5,36.5,0,0,1,72.25,8.59a8.86,8.86,0,0,0-1-.7l0-.06A46.18,46.18,0,0,0,35,1.36a46.44,46.44,0,0,0-11.85,4.7,45.28,45.28,0,0,0-9.75,7.41,45.73,45.73,0,0,0,10,72.27,44.86,44.86,0,0,0,11.91,4.6,45.86,45.86,0,0,0,24.53-1,43.14,43.14,0,0,0,5.64-2.22c.16-.09.3-.14.45-.24L69,85.23c.06,0,.13-.07.18-.12,1.18-.7,2.32-1.45,3.43-2.25A37.62,37.62,0,0,1,62.07,81.11ZM90.93,38.93l-.89,0H82.26a36.91,36.91,0,0,1,0,13.82h8.67A45.61,45.61,0,0,0,90.93,38.93ZM19.42,72.13A37.15,37.15,0,0,1,34.07,10.56a41.22,41.22,0,0,0-10.94-4.5,45.28,45.28,0,0,0-9.75,7.41,45.73,45.73,0,0,0,10,72.27,40.9,40.9,0,0,0,10.87-4.52A37.17,37.17,0,0,1,19.42,72.13Z"/><path class="cls-1" d="M94.47,45.9a20.57,20.57,0,0,1-1.15,6.83H53.75a20.91,20.91,0,0,1,0-13.82,20.93,20.93,0,0,1,39.47,0l0,0v0A20.89,20.89,0,0,1,94.47,45.9Z"/><circle class="cls-1" cx="73.55" cy="66.64" r="5.72"/></g></g></svg>