<svg xmlns="http://www.w3.org/2000/svg" viewBox="0 0 169.05 91.56"><defs><style>.cls-1{fill:#836af9;}</style></defs><g id="Ebene_2" data-name="Ebene 2"><g id="Ebene_1-2" data-name="Ebene 1"><path class="cls-1" d="M95.68,38.91V52.73H93.29V39s0,0,0,0Z"/><path class="cls-1" d="M169.05,45.82,97,85c0,.06-.14.07-.19.13l-3.07,1.65-.23.12-.21.13V77.2A33.9,33.9,0,0,0,99.84,72a37.24,37.24,0,0,0,0-52.6,34.63,34.63,0,0,0-6.56-5.2V4.61L99,7.73v0Z"/><path class="cls-1" d="M111.38,38.91V52.73H53.75a20.91,20.91,0,0,1,0-13.82h48.33l1.45,0h6.51Z"/><path class="cls-1" d="M47.24,72a37.22,37.22,0,0,1,0-52.58,36.63,36.63,0,0,1,12.3-8.13A36.67,36.67,0,0,0,46.72,8.67a44.38,44.38,0,0,0-5.53,4.7,45.8,45.8,0,0,0,0,64.69A46.53,46.53,0,0,0,47,83a36.68,36.68,0,0,0,12.79-2.69A37.24,37.24,0,0,1,47.24,72Zm0,0a37.22,37.22,0,0,1,0-52.58,36.63,36.63,0,0,1,12.3-8.13A36.67,36.67,0,0,0,46.72,8.67a44.38,44.38,0,0,0-5.53,4.7,45.8,45.8,0,0,0,0,64.69A46.53,46.53,0,0,0,47,83a36.68,36.68,0,0,0,12.79-2.69A37.24,37.24,0,0,1,47.24,72Zm0,0a37.22,37.22,0,0,1,0-52.58,36.63,36.63,0,0,1,12.3-8.13A36.67,36.67,0,0,0,46.72,8.67a44.38,44.38,0,0,0-5.53,4.7,45.8,45.8,0,0,0,0,64.69A46.53,46.53,0,0,0,47,83a36.68,36.68,0,0,0,12.79-2.69A37.24,37.24,0,0,1,47.24,72Zm58.64-58.65a42.08,42.08,0,0,0-6.8-5.59l0,0v0A46,46,0,0,0,62.81,1.26c-1.12.28-2.25.59-3.35,1A45,45,0,0,0,50.94,6a43.88,43.88,0,0,0-4.22,2.72,44.38,44.38,0,0,0-5.53,4.7,45.8,45.8,0,0,0,0,64.69A46.53,46.53,0,0,0,47,83a42.69,42.69,0,0,0,4.22,2.67,45.43,45.43,0,0,0,8.62,3.72c1.08.35,2.18.64,3.28.89A45.94,45.94,0,0,0,93.27,87h0v0l.21-.11.22-.12,3.07-1.66c.06-.05.14-.06.2-.12a43.86,43.86,0,0,0,8.89-6.94A45.77,45.77,0,0,0,105.88,13.37ZM110,53c-.09.39-.17.79-.26,1.17l-.16.63,0,.19a11.47,11.47,0,0,1-.35,1.31,12.72,12.72,0,0,1-.38,1.24c0,.14-.09.26-.14.4s-.14.42-.23.63c-.14.38-.28.77-.44,1.15s-.33.85-.54,1.26c0,0,0,0,0,0-.11.26-.23.51-.35.77L106.46,63c-.25.49-.52,1-.82,1.48a.26.26,0,0,0,0,.09.16.16,0,0,1-.06.08c-.29.51-.61,1-.94,1.51s-.56.83-.85,1.25a0,0,0,0,1,0,0c-.21.3-.44.59-.65.87a.36.36,0,0,1-.08.09c-.21.29-.44.57-.68.85l-.18.23c-.19.24-.38.47-.59.7l-.11.1a5.47,5.47,0,0,1-.45.51c-.37.42-.73.8-1.13,1.2a34.52,34.52,0,0,1-6.56,5.18,0,0,0,0,1,0,0,36.43,36.43,0,0,1-19.35,5.65H72.59a37.62,37.62,0,0,1-10.52-1.75c-.76-.24-1.53-.52-2.3-.84A37.17,37.17,0,0,1,47.26,19.44a36.63,36.63,0,0,1,12.3-8.13c.77-.32,1.54-.6,2.32-.86A36.5,36.5,0,0,1,72.25,8.59c.48,0,1,0,1.44,0A36.81,36.81,0,0,1,93.27,14.2a0,0,0,0,1,0,0,35.28,35.28,0,0,1,6.56,5.2c.43.44.87.89,1.27,1.34a1.13,1.13,0,0,1,.1.13,1.31,1.31,0,0,1,.11.12c.38.42.73.82,1.06,1.24s.79,1,1.16,1.48.57.8.85,1.22a1.53,1.53,0,0,1,.19.3c.35.5.66,1,1,1.57s.61,1.06.89,1.6.49.91.7,1.38l.15.35a.15.15,0,0,1,0,.09c.23.47.43,1,.63,1.43.12.31.26.64.36,1s.25.66.37,1c.33.94.61,1.92.85,2.88.09.33.16.66.23,1s.21.94.3,1.42.17,1,.24,1.46.16,1.19.21,1.78a36.82,36.82,0,0,1,0,7.12c-.1,1.15-.28,2.3-.49,3.44A2.93,2.93,0,0,1,110,53ZM47.24,72a37.22,37.22,0,0,1,0-52.58,36.63,36.63,0,0,1,12.3-8.13A36.67,36.67,0,0,0,46.72,8.67a44.38,44.38,0,0,0-5.53,4.7,45.8,45.8,0,0,0,0,64.69A46.53,46.53,0,0,0,47,83a36.68,36.68,0,0,0,12.79-2.69A37.24,37.24,0,0,1,47.24,72Zm0,0a37.22,37.22,0,0,1,0-52.58,36.63,36.63,0,0,1,12.3-8.13A36.67,36.67,0,0,0,46.72,8.67a44.38,44.38,0,0,0-5.53,4.7,45.8,45.8,0,0,0,0,64.69A46.53,46.53,0,0,0,47,83a36.68,36.68,0,0,0,12.79-2.69A37.24,37.24,0,0,1,47.24,72Zm12.53,8.25A37.17,37.17,0,0,1,47.26,19.44a36.63,36.63,0,0,1,12.3-8.13c.77-.32,1.54-.6,2.32-.86A40.89,40.89,0,0,0,50.94,6a43.88,43.88,0,0,0-4.22,2.72,44.38,44.38,0,0,0-5.53,4.7,45.8,45.8,0,0,0,0,64.69A46.53,46.53,0,0,0,47,83a42.69,42.69,0,0,0,4.22,2.67,41.51,41.51,0,0,0,10.87-4.52C61.31,80.87,60.54,80.59,59.77,80.27Z"/><path class="cls-1" d="M62.07,81.11c-.76-.24-1.53-.52-2.3-.84A36.68,36.68,0,0,1,47,83l-.87,0a37.14,37.14,0,0,1-12-72.42,36.06,36.06,0,0,1,11.81-1.9h.84a36.67,36.67,0,0,1,12.84,2.64c.77-.32,1.54-.6,2.32-.86A36.5,36.5,0,0,1,72.25,8.59a8.86,8.86,0,0,0-1-.7l0-.06A46.18,46.18,0,0,0,35,1.36a46.44,46.44,0,0,0-11.85,4.7,45.28,45.28,0,0,0-9.75,7.41,45.73,45.73,0,0,0,10,72.27,44.86,44.86,0,0,0,11.91,4.6,45.86,45.86,0,0,0,24.53-1,43.14,43.14,0,0,0,5.64-2.22c.16-.09.3-.14.45-.24L69,85.23c.06,0,.13-.07.18-.12,1.18-.7,2.32-1.45,3.43-2.25A37.62,37.62,0,0,1,62.07,81.11ZM90.93,38.93l-.89,0H82.26a36.91,36.91,0,0,1,0,13.82h8.67A45.61,45.61,0,0,0,90.93,38.93ZM19.42,72.13A37.15,37.15,0,0,1,34.07,10.56a41.22,41.22,0,0,0-10.94-4.5,45.28,45.28,0,0,0-9.75,7.41,45.73,45.73,0,0,0,10,72.27,40.9,40.9,0,0,0,10.87-4.52A37.17,37.17,0,0,1,19.42,72.13Z"/><path class="cls-1" d="M94.47,45.9a20.57,20.57,0,0,1-1.15,6.83H53.75a20.91,20.91,0,0,1,0-13.82,20.93,20.93,0,0,1,39.47,0l0,0v0A20.89,20.89,0,0,1,94.47,45.9Z"/><circle class="cls-1" cx="73.55" cy="66.64" r="5.72"/></g></g></svg>